<svg width="1920" height="400" viewBox="0 0 1920 400" fill="none" xmlns="http://www.w3.org/2000/svg">
<mask id="mask0_569_17" style="mask-type:alpha" maskUnits="userSpaceOnUse" x="0" y="0" width="1920" height="400">
<rect width="1920" height="400" fill="white"/>
</mask>
<g mask="url(#mask0_569_17)">
<path opacity="0.2" fill-rule="evenodd" clip-rule="evenodd" d="M-26.6494 119.553C-25.6262 114.257 -24.8315 110.176 -24.0684 106.229C-21.439 107.69 -19.3695 108.847 -16.5197 110.431C-16.4012 106.889 -16.3305 104.766 -16.2467 102.325C-14.4518 103.888 -12.8564 105.273 -11.3585 106.575L-8.08597 105.125C-8.70663 102.621 -9.34323 100.067 -10.0984 97.0425L0.939605 92.1507C1.5704 82.7488 5.33066 77.8714 9.47095 80.407C9.10751 81.7672 8.30688 83.168 8.51715 84.3989C8.71152 85.5293 9.98828 86.4754 11.6603 88.6214C13.7377 84.7169 15.0065 81.335 17.1475 78.6643C18.3672 77.1465 21.0125 76.7699 23.8479 75.513C23.1419 78.6903 22.7755 80.3643 22.4338 81.9139C30.7368 86.0887 30.7483 86.101 35.3576 80.0622C38.224 80.1843 41.5088 79.3654 43.2538 80.6491C45.4164 82.2486 46.3738 85.3594 49.392 82.6295C49.7402 80.0933 50.0532 77.7724 50.5264 74.2489C57.3424 78.003 62.7891 80.9996 68.2379 84.0013C69.0067 82.3245 69.5523 81.1449 70.3283 79.4717C73.0842 81.3589 75.6378 83.1087 78.3105 84.9475C81.7239 85.0089 85.4553 85.0833 89.2061 85.1484C88.774 86.8288 88.4734 87.9853 88.1316 89.2907C94.1889 88.51 99.835 87.775 105.661 87.0233C105.174 88.4891 104.754 89.7605 104.517 90.4572C109.369 95.2406 114.045 99.8461 119.69 105.409C108.032 106.421 102.268 97.0005 93.2872 95.1842C84.3194 93.3837 75.624 90.2361 65.8722 87.4085L68.4453 93.2182C75.0041 95.3642 80.0657 97.9799 85.3202 98.4649C90.8449 98.9832 94.4021 103.795 99.5843 103.834C105.418 103.88 108.45 108.611 113.008 110.678C120.567 114.108 126.159 122.167 135.611 120.302C139.726 127.18 144.576 132.833 152.292 135.797L156.7 145.749C158.716 145.618 160.454 145.501 162.25 145.387C161.312 149.735 160.846 153.596 165.906 155.656C173.025 158.554 177.525 164.17 179.936 171.167C181.8 176.569 186.047 180.012 188.971 184.484C191.167 187.853 191.558 192.494 196.295 193.964C196.668 194.077 196.611 195.603 196.746 196.47C195.48 197.667 194.215 198.864 192.965 200.044C194.576 201.205 196.282 201.978 197.286 203.283C198.41 204.729 199.108 206.613 199.603 208.411C200.095 210.216 199.776 212.279 200.431 213.989C201.009 215.472 203.336 216.595 203.363 217.913C203.556 225.546 205.468 232.734 207.151 240.127C209.263 249.371 208.494 259.129 205.897 267.44C195.592 270.343 186.408 268.388 177.08 270.494C167.167 272.732 156.244 270.032 145.798 270.422C126.005 271.157 106.741 264.123 86.8339 266.756C85.3317 266.956 83.5752 265.273 81.9385 264.464C80.5613 263.779 79.2499 262.678 77.804 262.466C58.6221 259.618 40.3332 253.822 22.4576 246.404C12.7969 242.399 4.22653 236.763 -4.31635 230.894C-9.05276 227.639 -12.6844 222.621 -17.6824 220.381C-26.5967 216.392 -30.768 208.283 -35.55 201.207C-40.7547 193.511 -44.1991 184.386 -47.1392 175.465C-50.1899 166.218 -50.1212 156.355 -48.0576 146.801C-47.4492 143.98 -44.2403 141.796 -43.2525 138.959C-42.2669 136.13 -42.5747 132.857 -42.2807 129.339C-40.4229 129.852 -39.2336 130.177 -37.8304 130.561C-36.8354 128.176 -35.7892 125.678 -34.7284 123.133L-26.6494 119.553ZM66.9467 32.1136C67.8695 36.365 64.1114 41.8097 69.9439 45.6014C70.5169 44.484 71.0697 43.3977 71.6145 42.3323C75.6616 46.0286 80.5187 46.1038 85.0405 45.5263C92.5256 48.6993 99.5597 52.0609 106.858 54.6695C114.509 57.411 122.42 59.4405 130.424 61.838C130.731 61.1564 131.275 59.9602 132.395 57.5143C136.018 67.0254 143.883 70.275 151.551 72.7072C151.373 75.8325 151.222 78.4685 151.069 81.1109C150.211 81.4969 149.351 81.8778 147.988 82.4821C146.557 80.4164 145.06 78.2552 143.138 75.4812C137.342 79.1753 132.21 76.6073 126.829 73.2066C127.219 71.2262 127.55 69.5623 127.926 67.6788C120.5 69.1287 113.979 68.3987 106.913 64.4429C92.7842 56.5306 76.757 53.5571 60.9068 50.7773C58.2564 50.3096 55.317 51.5499 49.8645 52.4259C53.3307 47.6679 55.1472 45.1627 56.7477 42.9647C58.9797 44.2318 60.987 45.3658 64.016 47.086C63.5825 41.2315 63.2609 36.9527 62.9372 32.6687C57.3879 32.2748 51.843 31.8794 46.0248 31.4682C45.454 32.5393 44.8239 33.7341 44.1223 35.0618C31.8445 32.7287 20.3116 38.1185 7.93259 40.4047C6.95059 41.6131 5.29742 43.6644 3.6413 45.7113L6.21866 51.5311C4.9426 52.3696 3.57986 53.2694 0.738708 55.1421C0.540008 51.3316 0.414276 48.9826 0.289276 46.5714C-0.727387 46.1753 -2.04752 45.6694 -3.32428 45.1728C-9.82376 47.7915 -7.97537 54.4403 -10.5962 60.2226C-12.2559 57.7189 -13.5732 55.7334 -15.4049 52.9702C-23.5583 54.7649 -26.6906 63.1383 -32.9488 67.1851C-32.081 69.8753 -31.3945 72.0148 -29.8475 76.8422C-33.5131 73.9027 -35.5666 72.2554 -36.4163 71.5688L-47.7722 76.6022C-46.0857 77.844 -44.9325 78.7026 -42.4389 80.5356C-45.4947 81.0885 -47.434 81.4311 -51.1653 82.1012C-50.145 81.3141 -50.7947 81.6299 -51.1906 82.1467C-57.8643 90.862 -64.9981 99.2694 -71.0402 108.397C-79.2219 120.771 -85.6527 134.278 -89.4462 148.564C-92.6544 160.654 -93.4853 173.349 -97.3872 185.381C-98.1676 187.808 -97.7485 190.619 -97.893 193.411C-97.4884 193.572 -96.6068 193.908 -94.5908 194.681C-98.2398 198.485 -98.9334 203.152 -98.0302 207.84C-94.9594 223.839 -94.8654 223.82 -89.7207 228.355C-89.4534 234.325 -89.2294 239.47 -89.0054 244.549C-85.7322 244.699 -83.6295 244.798 -80.7248 244.936C-81.1006 247.491 -81.4185 249.637 -81.5558 250.58C-75.0302 260.105 -69.0048 268.899 -62.8796 277.84C-60.8969 277.212 -58.7602 276.532 -55.909 275.632C-52.5881 284.567 -44.2525 287.351 -34.8122 290.733C-36.9337 293.548 -38.3449 295.43 -40.2589 297.971C-38.045 299.468 -35.8911 300.918 -32.6381 303.119C-32.8751 300.479 -33.0094 298.97 -33.1988 296.888C-30.6452 296.831 -27.3843 295.778 -25.2094 296.877C-18.0343 300.506 -11.1454 304.744 -4.40378 309.14C-2.68842 310.255 -1.92899 312.828 -1.62839 313.314C4.77643 315.358 11.0114 315.709 14.8858 318.914C25.457 327.67 38.2985 327.594 50.5062 330.129C53.8921 330.833 57.4132 330.882 61.0427 331.251C60.9487 329.922 60.8252 328.181 60.6908 326.326C61.4177 326.339 62.6785 326.144 62.771 326.392C64.1482 330.09 65.7278 333.465 72.0163 333.025L79.5533 329.685C83.6669 331.75 88.6707 334.261 93.6405 336.758C96.3494 334.472 98.3487 332.79 100.661 330.839C108.851 337.951 119.402 335.707 129.802 335.661C130.431 334.451 131.051 333.249 131.844 331.716C135.509 333.025 139.327 334.384 143.227 335.776L153.457 331.241C157.747 334.871 162.034 337.558 166.844 332.141C172.488 333.158 178.133 334.179 183.38 335.133C177.461 343.115 171.016 351.797 164.386 360.737C163.091 360.47 161.79 360.2 160.408 359.915C157.723 362.293 154.935 364.761 152.184 367.197L153.436 370.023C152.879 370.521 152.058 371.492 151.871 371.376C148.252 369.235 145.415 371.794 142.778 373.27C139.347 375.182 136.533 378.168 133.24 380.367C130.211 382.391 126.173 383.345 123.89 385.926C120.757 389.474 116.75 387.021 113.181 388.763C109.206 390.706 106.821 395.133 101.319 395.258C96.9614 395.36 92.6123 398.395 88.3658 400.352C75.1349 406.448 60.9466 408.423 46.7185 410.409C37.9943 411.633 29.3877 414.009 20.6302 414.685C6.72806 415.766 -7.28751 416.589 -21.1897 416.039C-27.7195 415.779 -34.4922 419.32 -40.8891 415.255C-42.8587 414.002 -46.3783 417.768 -47.7679 413.104C-47.9969 412.33 -51.7802 412.859 -53.7796 412.306C-56.5008 411.552 -59.0305 410.15 -61.7423 409.351C-66.8349 407.834 -71.9984 406.553 -78.391 404.841L-73.8901 415.007C-67.6247 415.607 -67.6247 415.607 -58.1186 424.369L-64.5401 427.215C-70.6602 420.953 -80.1396 420.607 -87.7626 416.068C-88.3479 417.725 -88.8103 419.051 -89.6051 421.324C-87.2207 423.326 -84.4677 425.641 -81.0644 428.498C-82.5601 429.064 -84.3954 430.467 -85.4865 430.025C-88.5935 428.78 -91.3827 426.779 -96.2455 423.948C-95.653 428.114 -95.3206 430.44 -94.9232 433.27C-96.4117 435.651 -98.2543 438.605 -101 442.999C-95.8337 442.789 -91.9679 442.632 -88.0805 442.472C-87.7698 444.945 -87.4157 447.822 -86.9822 451.337C-83.0587 452.176 -79.3303 452.964 -74.2738 454.035C-76.284 456.705 -77.7002 458.6 -79.2219 460.621C-76.0476 461.755 -72.9644 462.866 -70.0135 463.923C-68.8256 462.334 -67.5531 460.639 -64.8479 457.024C-64.0913 461.412 -63.7004 463.694 -63.3384 465.807C-61.8716 466.078 -59.8427 466.451 -58.1591 466.762C-58.2306 466.447 -58.5059 465.16 -59.0153 462.816C-53.4046 463.797 -48.0858 464.736 -42.6023 465.699C-43.1405 467.319 -43.5553 468.588 -43.3978 468.097C-40.1629 469.989 -36.9633 471.861 -33.2255 474.041C-32.0701 471.71 -31.3006 470.164 -30.5354 468.62C-28.0396 470.458 -25.5431 472.284 -22.9845 474.163L-15.9222 471.032C-7.13223 472.508 0.730774 474.445 8.68622 474.972C15.7898 475.449 22.4518 469.723 30.6934 472.822C31.5865 470.284 32.5106 467.663 33.4977 464.85C35.3785 464.17 37.4552 463.42 41.5406 461.945C38.641 465.276 37.268 466.845 35.4399 468.94C45.6613 469.377 56.0258 474.997 64.1865 464.366C66.0644 465.092 68.2712 465.943 70.6882 466.873C71.2316 465.751 71.7843 464.614 72.7295 462.655C79.45 464.064 85.5355 462.282 89.477 455.147C92.5711 456.129 95.5596 457.078 98.9448 458.152C100.93 456.413 102.902 454.682 105.343 452.549C106.1 452.628 108.108 453.454 109.352 452.812C110.731 452.104 111.121 449.635 112.473 448.672C114.347 447.324 116.718 446.66 118.874 445.705C120.603 444.939 122.555 444.459 123.99 443.324C125.32 442.274 126.1 440.519 127.634 438.35C138.244 443.27 140.296 430.084 151.17 428.737C145.63 425.464 142.708 423.741 139.792 422.021C141.163 418.816 147.582 419.443 154.782 423.653C154.431 422.001 154.16 420.711 153.83 419.13C156.156 413.478 161.674 417.188 165.685 415.751C166.75 413.216 167.82 410.668 168.867 408.169C170.121 408.562 171.368 408.953 173.058 409.488C172.816 407.85 172.621 406.55 172.287 404.323C179.732 398.039 187.77 391.34 195.446 384.26C199.219 380.77 199.449 377.736 199.289 374.618C202.831 372.968 207.442 372.346 209.041 369.824C217.907 355.824 225.994 341.333 234.47 327.079C235.795 324.849 237.846 323.065 239.407 320.958C241.266 318.447 242.961 315.809 244.945 312.9C245.672 313.721 246.753 314.929 248.575 316.975C254.831 313.27 263.158 312.842 267.686 305.311C271.168 305.529 274.675 305.748 278.463 305.99C283.718 297.239 296.968 299.586 302.19 291.019C305.448 290.564 308.44 290.147 311.727 289.691C311.521 287.328 311.371 285.592 311.209 283.737C317.389 284.426 321.115 281.166 325.593 277.101C329.823 273.271 335.712 271.291 337.764 265.136C338.611 265.392 339.455 265.643 341.214 266.177C341.788 265.177 342.478 263.951 343.591 261.998C345.048 262.056 346.791 262.131 348.255 262.191C353.311 258.314 358.698 254.711 363.459 250.413C373.189 241.633 385.216 235.461 392.573 223.875C395.05 219.975 399.486 217.202 403.311 214.291C425.74 197.212 441.633 174.613 456.85 151.398C465.453 138.265 472.416 124.38 477.361 109.452C478.974 104.577 480.345 99.2181 483.414 95.3345C486.76 91.1005 485.372 86.1574 487.731 81.7983C494.109 70.0033 494.917 56.4085 498.143 43.6174C501.278 31.1856 502.959 18.3179 504.364 5.54421C505.841 -7.93781 507.825 -21.6851 506.637 -35.0544C505.52 -47.659 506.88 -60.635 502.826 -72.9953C502.33 -74.498 503.962 -76.7668 503.376 -78.1668C500.041 -86.134 501.051 -94.9086 498.592 -102.935C496.801 -108.762 493.75 -114.202 490.836 -120.782C488.063 -121.627 484.557 -122.694 480.286 -124C476.824 -121.079 472.808 -117.691 469.149 -114.597C469.524 -112.723 469.779 -111.432 470.053 -110.042L464.962 -107.786C463.935 -103.614 462.411 -99.795 462.204 -95.9127C462.005 -92.0391 462.278 -87.7155 463.816 -84.2432C469.45 -71.5367 466.767 -58.0431 467.838 -44.9796C468.616 -35.4866 468.061 -25.8237 468.764 -16.2064C469.146 -11.0335 467.542 -5.68997 466.64 -0.45343C464.599 11.3575 463.844 23.3543 460.994 35.0575C459.419 41.5192 459.352 48.3856 457.461 54.7251C453.348 68.489 449.069 82.2638 443.831 95.6338C432.796 123.826 415.008 147.879 395.513 170.66C391.297 175.586 385.448 179.184 380.118 183.081C373.003 188.286 368.36 196.186 360.543 200.6C349.25 206.98 340.754 217.355 328.639 222.702C324.249 224.641 320.628 228.281 316.533 230.966C312.44 233.655 306.866 233.642 304.19 239.26C303.284 241.179 298.52 241.62 295.424 242.071C286.477 243.382 280.737 246.137 274.304 252.818C272.563 252.493 270.822 252.168 268.363 251.706C267.572 253.256 266.706 254.776 266.01 256.375C265.455 257.649 265.105 259.015 264.828 259.837C261.67 258.492 258.707 257.23 254.717 255.52C254.877 249.84 255.315 242.9 255.202 235.976C255.088 228.996 254.08 222.026 254.11 215.051C254.138 208.508 253.704 202.204 251.515 193.683C251.334 194.161 252.179 191.951 253.197 189.323C251.053 184.482 248.561 179.42 246.577 174.173C245.169 170.455 241.753 167.257 243.988 162.362C244.653 160.913 243.046 157.323 241.433 156.133C234.151 150.762 233.089 142.015 229.064 134.915C225.49 128.616 221.616 122.501 213.301 120.378C211.275 114.7 208.206 109.4 202.997 105.337C199.604 102.692 197.67 97.479 194.032 95.9995C189.319 94.082 188.82 89.6593 185.976 87.2025C179.954 81.9949 175.233 73.8904 164.481 76.1158C165.182 73.1452 165.587 71.4423 166.061 69.4474C163.574 68.9249 160.987 68.3828 155.913 67.3181C154.684 66.0952 151.631 63.0501 146.889 58.3202C140.086 55.0323 131.384 48.7268 121.813 46.8078C112.398 44.922 104.57 39.9746 95.7099 37.6097C86.2963 35.098 76.541 33.8917 66.9467 32.1136Z" fill="#53AFEE"/>
</g>
</svg>
