<svg width="335" height="334" viewBox="0 0 335 334" fill="none" xmlns="http://www.w3.org/2000/svg">
<path d="M167.14 166.997C167.14 211.287 149.53 253.763 118.185 285.081C86.8406 316.399 44.328 333.993 -0.000289917 333.993C-0.000289917 289.703 17.609 247.227 48.9538 215.909C80.2987 184.591 122.811 166.997 167.14 166.997Z" fill="#676E89"/>
<path d="M334.22 0C334.22 44.2903 316.61 86.7665 285.266 118.084C253.921 149.402 211.408 166.997 167.08 166.997C167.08 122.706 184.689 80.2301 216.034 48.9122C247.379 17.5943 289.891 0 334.22 0Z" fill="#53AFEE"/>
<path d="M-0.000289917 0C44.328 0 86.8406 17.5943 118.185 48.9122C149.53 80.2301 167.14 122.706 167.14 166.997C122.813 166.991 80.3034 149.395 48.9597 118.079C17.616 86.7618 0.0050354 44.2886 -0.000289917 0Z" fill="#1F0D3C"/>
</svg>
