<svg width="53" height="105" viewBox="0 0 53 105" fill="none" xmlns="http://www.w3.org/2000/svg">
<path d="M3.8147e-06 105C6.95886 105.003 13.8502 103.648 20.2803 101.011C26.7104 98.374 32.5533 94.5074 37.4751 89.632C42.3969 84.7566 46.3013 78.9679 48.9651 72.5967C51.6289 66.2255 53 59.3965 53 52.5C38.9497 52.5 25.4747 58.031 15.5391 67.8765C5.6034 77.722 0.0207456 91.0755 0.0190582 105L3.8147e-06 105Z" fill="#676E89"/>
<path d="M53 52.5C53 45.6051 51.6296 38.7777 48.9669 32.4077C46.3043 26.0376 42.4017 20.2498 37.4819 15.3747C32.562 10.4995 26.7214 6.63251 20.2935 3.9945C13.8656 1.3565 6.97632 -0.000831777 0.0190629 -8.40494e-06C0.0190623 6.89492 1.38951 13.7223 4.05212 20.0923C6.71474 26.4623 10.6174 32.2502 15.5372 37.1253C20.457 42.0005 26.2977 45.8675 32.7256 48.5055C39.1535 51.1435 46.0427 52.5008 53 52.5Z" fill="#53AFEE"/>
</svg>
