<svg width="422" height="430" viewBox="0 0 422 430" fill="none" xmlns="http://www.w3.org/2000/svg">
<path opacity="0.2" fill-rule="evenodd" clip-rule="evenodd" d="M485.914 102.416C483.611 97.6818 481.83 94.0353 480.113 90.5067C478.002 92.5485 476.342 94.1626 474.054 96.3766C473.048 93.0668 472.444 91.0833 471.749 88.8032C470.451 90.7302 469.295 92.4391 468.212 94.0456L464.758 93.5051C464.711 90.9877 464.667 88.4193 464.615 85.3766L452.967 83.5544C449.997 74.8497 445.218 71.2017 441.953 74.6387C442.639 75.8293 443.748 76.9475 443.861 78.1612C443.963 79.2761 442.998 80.4908 441.963 82.9367C439.017 79.7806 436.965 76.9128 434.271 74.936C432.737 73.8132 430.147 74.1268 427.155 73.6584C428.623 76.4756 429.392 77.9613 430.106 79.3359C423.328 85.3705 423.32 85.385 417.447 80.8566C414.774 81.6962 411.468 81.7544 410.147 83.4057C408.511 85.4603 408.394 88.6353 404.857 86.8243C403.888 84.5211 403.006 82.4121 401.67 79.2097C396.189 84.4719 391.808 88.6738 387.426 92.8811C386.277 91.4944 385.465 90.5202 384.31 89.1388C382.187 91.6146 380.221 93.9098 378.164 96.319C374.96 97.2396 371.459 98.2529 367.937 99.2623C368.769 100.737 369.345 101.752 369.997 102.896C364.086 103.691 358.574 104.425 352.889 105.189C353.719 106.448 354.436 107.54 354.835 108.137C351.467 113.873 348.22 119.398 344.3 126.069C355.553 124.077 358.61 113.738 366.623 109.756C374.627 105.792 382.034 100.626 390.519 95.4955L389.559 101.623C383.914 105.304 379.801 109.05 374.967 110.835C369.886 112.72 367.746 118.155 362.868 119.502C357.377 121.02 355.712 126.247 351.934 129.348C345.671 134.492 342.432 143.504 333.044 144.135C330.9 151.659 327.753 158.215 321.224 162.959L319.58 173.457C317.645 173.842 315.976 174.171 314.253 174.518C316.236 178.381 317.651 181.903 313.398 185.124C307.415 189.655 304.59 196.087 304.083 203.293C303.689 208.858 300.553 213.177 298.925 218.133C297.704 221.865 298.507 226.339 294.411 228.922C294.087 229.123 294.526 230.547 294.619 231.398C296.115 232.207 297.61 233.016 299.088 233.812C297.862 235.314 296.448 236.474 295.83 237.959C295.135 239.605 294.953 241.558 294.94 243.379C294.931 245.205 295.754 247.069 295.568 248.847C295.398 250.391 293.486 252.039 293.794 253.288C295.54 260.532 295.552 267.793 295.832 275.189C296.176 284.437 299.366 293.443 303.915 300.623C314.369 300.755 322.539 296.591 331.87 296.218C341.785 295.823 351.407 290.516 361.359 288.244C380.216 283.934 396.61 272.433 416.053 269.884C417.521 269.693 418.753 267.662 420.092 266.486C421.218 265.491 422.177 264.122 423.487 263.557C440.862 256.023 456.649 245.936 471.637 234.425C479.739 228.207 486.399 220.727 492.975 213.034C496.62 208.768 498.778 203.12 502.927 199.744C510.328 193.73 512.214 185.031 514.937 177.151C517.903 168.579 518.847 159.106 519.366 149.952C519.908 140.462 517.352 131.181 512.991 122.695C511.705 120.189 508.126 118.941 506.478 116.516C504.834 114.098 504.297 110.934 503.131 107.692C501.508 108.645 500.468 109.252 499.242 109.968C497.701 107.972 496.082 105.881 494.439 103.75L485.914 102.416ZM375.536 43.6345C375.74 47.876 380.66 52.0594 376.116 57.1085C375.293 56.1998 374.498 55.3153 373.715 54.4486C370.831 58.9564 366.268 60.2549 361.857 60.8533C355.598 65.7368 349.812 70.6841 343.587 74.988C337.062 79.5066 330.113 83.4195 323.168 87.7031C322.706 87.1379 321.891 86.1476 320.216 84.1249C319.202 94.0076 312.604 99.0593 305.985 103.29C306.942 106.192 307.751 108.639 308.563 111.092C309.469 111.239 310.377 111.381 311.815 111.606C312.643 109.297 313.509 106.881 314.622 103.779C321.022 105.797 325.214 102.079 329.431 97.5129C328.563 95.7442 327.83 94.2591 326.999 92.5785C334.37 92.0685 340.338 89.7318 346.003 84.2165C357.332 73.1856 371.699 66.3312 385.948 59.7041C388.33 58.5934 391.416 59.0198 396.781 58.4675C392.309 54.8577 389.963 52.9549 387.898 51.2872C386.113 53.0459 384.506 54.6224 382.083 57.0099C381.013 51.3806 380.235 47.2652 379.458 43.1444C384.594 41.3704 389.724 39.5962 395.108 37.7379C395.918 38.6035 396.814 39.5707 397.811 40.6452C408.803 35.3422 421.044 37.5087 433.298 36.5353C434.53 37.4265 436.607 38.9426 438.687 40.4538L437.726 46.5923C439.141 47.0602 440.654 47.5641 443.807 48.6117C443.032 44.9689 442.557 42.7224 442.066 40.4175C442.925 39.7871 444.042 38.9764 445.121 38.1856C451.914 39.0117 451.85 45.7475 455.783 50.5366C456.716 47.7566 457.457 45.5517 458.486 42.4836C466.631 42.1148 471.701 49.2176 478.626 51.4513C478.487 54.2069 478.38 56.3975 478.141 61.3399C480.856 57.642 482.377 55.5699 483.005 54.7078L494.988 56.5831C493.711 58.1801 492.84 59.2811 490.951 61.6395C493.973 61.3885 495.889 61.2213 499.578 60.9099C498.417 60.4257 499.109 60.5593 499.614 60.9465C508.11 67.4765 516.964 73.5999 524.969 80.6788C535.813 90.2771 545.291 101.386 552.478 113.896C558.559 124.483 562.55 136.243 569.27 146.6C570.619 148.691 570.934 151.448 571.776 154.043C571.435 154.297 570.688 154.837 568.982 156.076C573.384 158.739 575.218 162.964 575.55 167.612C576.695 183.473 576.602 183.479 572.894 189.054C574.15 194.75 575.239 199.658 576.311 204.503C573.261 205.472 571.303 206.096 568.597 206.961C569.597 209.274 570.439 211.218 570.807 212.072C567.058 222.702 563.596 232.515 560.077 242.494C558.048 242.403 555.86 242.302 552.944 242.174C552.068 251.436 544.909 256.169 536.858 261.743C539.57 263.861 541.377 265.279 543.824 267.191C542.114 269.162 540.449 271.073 537.936 273.97C537.493 271.422 537.238 269.965 536.891 267.954C534.468 268.545 531.126 268.377 529.352 269.963C523.5 275.198 518.073 280.935 512.824 286.783C511.488 288.268 511.421 290.886 511.261 291.42C505.735 294.966 499.943 296.873 497.098 300.874C489.338 311.801 477.205 314.975 466.33 320.451C463.314 321.97 460.005 322.906 456.675 324.172C456.428 322.895 456.105 321.222 455.763 319.439C455.08 319.635 453.842 319.77 453.817 320.028C453.452 323.862 452.815 327.443 446.772 328.618L438.818 327.373C435.46 330.36 431.374 333.992 427.317 337.603C424.184 336.132 421.873 335.052 419.199 333.797C413.271 342.572 402.751 343.123 392.929 345.709C392.03 344.726 391.141 343.751 390.006 342.505C386.88 344.665 383.622 346.912 380.294 349.21L369.499 347.521C366.369 352.026 363.004 355.644 357.098 351.752C352.032 354.137 346.964 356.527 342.256 358.753C349.856 364.783 358.128 371.339 366.641 378.092C367.795 377.513 368.954 376.93 370.186 376.311C373.32 377.874 376.573 379.497 379.783 381.098L379.316 384.079C379.968 384.408 380.987 385.116 381.134 384.959C384.007 382.026 387.33 383.721 390.19 384.446C393.909 385.382 397.318 387.486 400.98 388.727C404.348 389.87 408.398 389.749 411.204 391.604C415.056 394.158 418.215 390.833 422.022 391.572C426.263 392.4 429.631 395.971 434.852 394.698C438.989 393.693 443.858 395.455 448.358 396.226C462.379 398.63 476.261 396.906 490.184 395.182C498.723 394.131 507.442 394.196 515.873 392.62C529.26 390.125 542.689 387.358 555.663 383.326C561.757 381.43 569.04 383.057 574.048 377.608C575.589 375.929 579.86 378.589 579.993 373.841C580.013 373.053 583.716 372.596 585.462 371.57C587.838 370.17 589.871 368.209 592.227 366.771C596.647 364.053 601.194 361.54 606.792 358.31L605.115 369.033C599.356 371.182 599.356 371.182 592.602 381.846L599.379 382.905C603.57 375.455 612.424 372.733 618.468 366.527C619.439 367.941 620.21 369.074 621.534 371.016C619.791 373.507 617.779 376.385 615.29 379.939C616.844 380.095 618.93 380.953 619.847 380.261C622.464 378.302 624.589 375.711 628.461 371.812C628.954 375.889 629.228 378.166 629.569 380.935C631.574 382.804 634.058 385.123 637.759 388.572C632.832 389.68 629.146 390.509 625.439 391.34C625.77 393.751 626.163 396.553 626.642 399.976C623.153 401.759 619.835 403.444 615.336 405.731C617.907 407.741 619.721 409.169 621.667 410.69C618.959 412.562 616.332 414.389 613.815 416.131C612.293 414.933 610.665 413.657 607.2 410.932C607.595 415.261 607.802 417.511 607.994 419.594C606.679 420.22 604.86 421.086 603.35 421.804C603.338 421.489 603.273 420.206 603.161 417.868C598.116 420.211 593.336 422.44 588.407 424.734C589.324 426.125 590.036 427.217 589.763 426.794C587.19 429.395 584.645 431.969 581.669 434.968C579.991 433.063 578.874 431.8 577.763 430.538C575.873 432.902 573.979 435.254 572.04 437.672L564.587 436.506C556.669 440.118 549.741 443.932 542.37 446.439C535.79 448.685 528.059 444.97 521.067 449.975C519.584 447.808 518.05 445.571 516.408 443.168C514.462 443.002 512.314 442.82 508.088 442.462C511.664 444.87 513.356 446.002 515.609 447.515C506.078 450.511 497.721 458.429 487.338 450.468C485.749 451.627 483.883 452.988 481.838 454.475C481.042 453.555 480.233 452.623 478.847 451.014C472.863 454.041 466.673 453.899 461.152 448.169C458.482 449.876 455.902 451.526 452.98 453.395C450.668 452.258 448.371 451.123 445.53 449.729C444.836 449.996 443.151 451.282 441.815 450.991C440.335 450.672 439.343 448.443 437.825 447.877C435.716 447.08 433.312 447.053 431.037 446.697C429.212 446.411 427.25 446.453 425.61 445.745C424.09 445.091 422.911 443.634 420.916 441.977C412.151 449.297 406.884 437.384 396.286 438.863C400.685 434.376 403.006 432.013 405.322 429.654C403.219 426.979 397.323 429.193 391.595 434.982C391.509 433.336 391.438 432.051 391.35 430.477C387.728 425.736 383.461 430.629 379.313 430.288C377.669 428.167 376.016 426.035 374.397 423.944C373.314 424.631 372.236 425.315 370.776 426.247C370.591 424.642 370.446 423.366 370.199 421.182C361.589 417.14 352.314 412.855 343.285 408.12C338.844 405.783 337.861 402.981 337.224 400.001C333.466 399.341 328.96 399.919 326.814 397.946C314.914 386.987 303.625 375.369 292.029 364.073C290.215 362.305 287.83 361.142 285.826 359.55C283.438 357.652 281.172 355.593 278.566 353.352C278.087 354.31 277.373 355.722 276.172 358.112C269.334 356.2 261.371 357.901 255.197 351.945C251.967 353.031 248.715 354.124 245.203 355.31C238.035 348.387 226.13 353.948 219.039 347.192C215.851 347.586 212.924 347.949 209.708 348.35C209.305 346.07 209.008 344.396 208.693 342.606C203.037 344.817 198.698 342.685 193.448 339.985C188.49 337.443 182.434 337.065 178.944 331.78C178.21 332.235 177.477 332.686 175.953 333.633C175.158 332.836 174.198 331.854 172.655 330.294C171.295 330.718 169.67 331.228 168.304 331.656C162.555 329.278 156.564 327.242 150.987 324.394C139.591 318.575 126.686 315.797 116.82 306.732C113.498 303.681 108.613 302.188 104.27 300.41C78.7981 289.977 58.0974 272.687 37.8787 254.647C26.4458 244.439 16.3697 233.108 7.93432 220.283C5.18074 216.095 2.53402 211.389 -1.34245 208.504C-5.56851 205.357 -5.50725 200.346 -8.83385 196.832C-17.83 187.324 -22.0264 174.711 -28.301 163.467C-34.399 152.538 -39.2351 140.832 -43.787 129.143C-48.5861 116.806 -53.9313 104.346 -56.1875 91.4413C-58.318 79.2752 -62.8796 67.3851 -62.1777 54.707C-62.0897 53.165 -64.2019 51.4383 -64.0028 49.9703C-62.8693 41.6157 -66.0395 33.5984 -65.7478 25.4094C-65.5302 19.4627 -64.026 13.5632 -62.9394 6.62308C-60.5378 5.12489 -57.5 3.23364 -53.8005 0.92214C-49.7971 2.80107 -45.1529 4.98055 -40.9206 6.97227C-40.8009 8.83383 -40.7146 10.1156 -40.6225 11.4955L-35.2499 12.3361C-33.2267 16.0099 -30.8246 19.2249 -29.6489 22.833C-28.4822 26.4346 -27.6476 30.58 -28.2215 34.2425C-30.3259 47.6462 -24.3863 59.69 -22.0963 72.2771C-20.4322 81.4239 -17.4676 90.3938 -15.7013 99.6388C-14.755 104.613 -11.8913 109.245 -9.71777 113.954C-4.80854 124.574 -1.0663 135.693 4.57911 146.007C7.69735 151.701 9.49469 158.158 12.8799 163.657C20.2373 175.594 27.7535 187.499 36.0713 198.781C53.6026 222.572 76.4591 240.753 100.603 257.303C105.824 260.882 112.251 262.797 118.263 265.123C126.29 268.232 132.665 274.507 141.154 276.692C153.418 279.854 164.053 287.488 176.831 289.466C181.463 290.186 185.798 292.702 190.339 294.198C194.879 295.698 200.134 294.277 204.077 298.899C205.416 300.479 210.022 299.69 213.056 299.333C221.827 298.308 227.938 299.454 235.693 304.127C237.254 303.381 238.813 302.634 241.017 301.577C242.155 302.838 243.355 304.053 244.416 305.384C245.261 306.445 245.936 307.644 246.405 308.35C249.045 306.283 251.521 304.345 254.852 301.724C253.266 296.409 251.1 289.976 249.458 283.42C247.802 276.811 246.992 269.985 245.201 263.416C243.523 257.254 242.339 251.201 242.252 242.614C242.543 243.019 241.187 241.149 239.563 238.928C240.363 233.823 241.435 228.42 241.98 222.971C242.369 219.11 244.784 215.232 241.439 211.181C240.445 209.984 241.054 206.193 242.275 204.664C247.787 197.759 246.579 189.243 248.583 181.533C250.363 174.691 252.472 167.946 259.779 163.843C260.256 157.977 261.813 152.204 265.699 147.058C268.232 143.706 268.739 138.302 271.797 135.988C275.758 132.989 275.111 128.693 277.173 125.658C281.539 119.226 283.944 110.392 294.649 109.772C293.238 107.149 292.425 105.646 291.474 103.885C293.688 102.763 295.991 101.598 300.508 99.3123C301.359 97.8486 303.47 94.2059 306.748 88.5479C312.335 83.7286 318.95 75.5842 327.494 71.3558C335.898 67.1983 342.032 60.5553 349.793 56.0862C358.038 51.3389 366.935 47.7358 375.536 43.6345Z" fill="white"/>
</svg>
