<svg xmlns="http://www.w3.org/2000/svg" width="492" height="64" fill="none" viewBox="0 0 492 64">
  <path fill="#53AFEE" fill-rule="evenodd" d="M370.927.256c-69.17.728-88.947 1.201-127.326 3.049-39.773 1.914-68.236 3.833-113.398 7.646-10.47.884-21.679 1.722-34.822 2.605-48.276 3.242-57.67 4.106-73.277 6.737-7.732 1.304-14.42 2.207-18.168 2.453-3.332.218-3.936.356-3.936.896 0 .477 5.33.895 8.245.647 1.044-.09 3.875-.307 6.29-.484 2.414-.177 7.728-.652 11.808-1.056 9.609-.951 14.222-1.25 30.735-1.998 27.76-1.256 48.729-2.463 74.488-4.287l28.009-1.984c44.839-3.177 99.611-6.009 133.079-6.882 40.615-1.06 166.701-1.996 164.571-1.223-.843.307-15.271 2.587-23.921 3.781-7.945 1.098-21.218 2.68-37.547 4.476-7.744.852-18.372 2.032-23.618 2.621-19.708 2.215-26.199 2.901-37.395 3.958-51.583 4.867-85.655 9.108-133.081 16.564-28.189 4.431-51.294 9.519-77.078 16.971-14.66 4.238-16.088 4.99-14.645 7.718.939 1.775 8.336 2.005 23.254.723 27.265-2.342 52.886-4.16 77.705-5.51 15.568-.847 17.63-.99 33.459-2.305 5.913-.491 16.132-1.21 22.71-1.595l11.96-.702-15.897-.277c-24.089-.419-49.929-.394-58.439.058-28.175 1.495-43.5 2.645-68.531 5.145-5.967.596-11 1.032-11.185.97-1.793-.605 38.329-9.742 57.47-13.088 43.209-7.553 87.704-13.19 156.082-19.77 6.245-.6 18.782-1.916 27.857-2.921 9.077-1.006 23.385-2.59 31.795-3.52 32.37-3.58 42.015-4.914 73.125-10.111 19.926-3.329 20.032-3.357 20.575-5.547.597-2.407-.999-3.499-5.572-3.81-4.345-.298-85.681-.26-115.381.052Zm-90.608 52.576c.376.073.922.07 1.212-.006.289-.077-.019-.137-.686-.133-.666.003-.903.066-.526.14Z" clip-rule="evenodd" opacity=".1"/>
</svg>
