<svg xmlns="http://www.w3.org/2000/svg" width="704" height="248" fill="none" viewBox="0 0 704 248">
  <path fill="#fff" fill-rule="evenodd" d="M552.058-3.34c-2.303-4.734-4.083-8.38-5.8-11.909-2.112 2.042-3.771 3.656-6.059 5.87-1.007-3.31-1.61-5.293-2.306-7.573-1.298 1.927-2.453 3.636-3.537 5.242l-3.453-.54c-.047-2.518-.092-5.086-.144-8.129L519.111-22.2c-2.97-8.705-7.749-12.353-11.014-8.916.687 1.19 1.796 2.31 1.908 3.523.102 1.115-.863 2.33-1.898 4.775-2.946-3.156-4.997-6.024-7.691-8-1.534-1.123-4.125-.81-7.117-1.278 1.469 2.817 2.237 4.303 2.951 5.678-6.777 6.034-6.785 6.049-12.659 1.52-2.673.84-5.978.898-7.3 2.55-1.636 2.054-1.753 5.229-5.29 3.418-.969-2.303-1.85-4.412-3.187-7.615-5.481 5.262-9.862 9.464-14.243 13.672a1122.812 1122.812 0 0 0-3.116-3.743 4537.33 4537.33 0 0 0-6.147 7.18c-3.204.921-6.705 1.935-10.226 2.944.832 1.475 1.407 2.49 2.059 3.634-5.91.795-11.422 1.529-17.108 2.293.83 1.259 1.547 2.351 1.947 2.948-3.368 5.736-6.616 11.26-10.536 17.931C421.697 18.322 424.755 7.983 432.767 4c8.005-3.964 15.412-9.13 23.896-14.26l-.959 6.128c-5.645 3.68-9.759 7.426-14.593 9.212-5.08 1.885-7.22 7.32-12.099 8.667-5.491 1.518-7.156 6.745-10.933 9.845-6.264 5.145-9.503 14.156-18.89 14.788-2.144 7.523-5.291 14.08-11.821 18.824L385.724 67.7c-1.935.386-3.603.715-5.327 1.062 1.984 3.862 3.399 7.385-.854 10.606-5.983 4.531-8.809 10.963-9.316 18.169-.393 5.564-3.529 9.884-5.158 14.84-1.221 3.731-.417 8.206-4.513 10.789-.324.2.115 1.625.207 2.476 1.496.809 2.992 1.618 4.469 2.414-1.226 1.502-2.64 2.662-3.257 4.146-.695 1.647-.878 3.6-.891 5.421-.008 1.826.814 3.69.628 5.468-.17 1.544-2.081 3.191-1.774 4.44 1.746 7.245 1.759 14.506 2.038 21.901.344 9.249 3.534 18.255 8.084 25.434 10.454.132 18.623-4.032 27.954-4.404 9.916-.395 19.537-5.702 29.489-7.975 18.857-4.309 35.251-15.81 54.695-18.36 1.467-.191 2.699-2.221 4.038-3.398 1.126-.994 2.085-2.363 3.396-2.928 17.374-7.534 33.162-17.621 48.15-29.132 8.101-6.218 14.762-13.698 21.337-21.391 3.646-4.266 5.804-9.915 9.952-13.29 7.401-6.014 9.288-14.714 12.011-22.594 2.965-8.571 3.909-18.044 4.429-27.199.541-9.49-2.015-18.77-6.375-27.256-1.287-2.506-4.865-3.754-6.514-6.179-1.644-2.418-2.181-5.582-3.347-8.824-1.623.952-2.662 1.56-3.889 2.276-1.541-1.997-3.159-4.088-4.802-6.218l-8.526-1.334ZM441.681-62.12c.203 4.24 5.124 8.424.58 13.473-.823-.909-1.619-1.793-2.402-2.66-2.884 4.508-7.446 5.806-11.858 6.405-6.259 4.883-12.045 9.83-18.27 14.135-6.525 4.518-13.474 8.431-20.419 12.715a674.61 674.61 0 0 0-2.952-3.579c-1.014 9.883-7.612 14.935-14.23 19.166.957 2.902 1.765 5.349 2.577 7.801.907.147 1.814.29 3.252.515l2.807-7.827c6.4 2.018 10.592-1.7 14.809-6.266-.868-1.77-1.6-3.254-2.431-4.935 7.371-.51 13.338-2.846 19.004-8.362 11.329-11.03 25.696-17.885 39.945-24.512 2.382-1.111 5.468-.685 10.833-1.237-4.472-3.61-6.818-5.512-8.883-7.18-1.786 1.759-3.393 3.335-5.815 5.723a9079.04 9079.04 0 0 1-2.625-13.866c5.135-1.774 10.266-3.548 15.65-5.407.809.866 1.705 1.833 2.702 2.908 10.993-5.303 23.233-3.137 35.488-4.11 1.231.891 3.309 2.407 5.388 3.918l-.961 6.139c1.416.468 2.928.972 6.082 2.02-.776-3.643-1.25-5.89-1.742-8.195.859-.63 1.977-1.44 3.056-2.232 6.792.826 6.728 7.562 10.661 12.351l2.704-8.053c8.144-.369 13.214 6.734 20.14 8.968-.139 2.756-.246 4.946-.486 9.889 2.715-3.698 4.236-5.77 4.864-6.633l11.984 1.876c-1.277 1.597-2.148 2.698-4.037 5.056 3.022-.25 4.938-.418 8.627-.73-1.162-.484-.469-.35.035.037 8.497 6.53 17.35 12.654 25.356 19.732 10.843 9.599 20.321 20.708 27.509 33.218 6.08 10.587 10.071 22.347 16.791 32.704 1.35 2.09 1.665 4.848 2.506 7.443-.341.254-1.088.794-2.794 2.032 4.403 2.664 6.236 6.889 6.569 11.537 1.145 15.86 1.051 15.866-2.656 21.442 1.256 5.696 2.344 10.603 3.416 15.449-3.049.969-5.008 1.593-7.713 2.457 1 2.314 1.842 4.258 2.21 5.112l-10.731 30.421c-2.029-.091-4.216-.192-7.133-.32-.875 9.263-8.035 13.995-16.086 19.569 2.713 2.119 4.519 3.536 6.967 5.448-1.71 1.971-3.376 3.883-5.888 6.78-.444-2.549-.698-4.006-1.045-6.016-2.424.591-5.766.422-7.54 2.009-5.851 5.235-11.279 10.972-16.527 16.82-1.337 1.485-1.403 4.103-1.564 4.637-5.525 3.545-11.318 5.453-14.163 9.453-7.76 10.927-19.892 14.101-30.767 19.577-3.016 1.52-6.325 2.456-9.656 3.721-.247-1.276-.57-2.949-.912-4.732-.682.196-1.921.331-1.945.588-.365 3.835-1.003 7.416-7.046 8.591l-7.953-1.245-11.502 10.229c-3.132-1.47-5.443-2.551-8.117-3.806-5.929 8.776-16.449 9.327-26.27 11.913-.899-.983-1.788-1.959-2.923-3.204-3.127 2.16-6.385 4.407-9.713 6.705l-10.795-1.69c-3.129 4.506-6.494 8.123-12.401 4.232-5.066 2.385-10.133 4.775-14.841 7 7.599 6.03 15.872 12.587 24.385 19.34l3.545-1.781 9.596 4.787-.467 2.981c.652.328 1.671 1.037 1.818.88 2.873-2.933 6.196-1.238 9.056-.513 3.72.936 7.128 3.04 10.79 4.28 3.369 1.143 7.419 1.022 10.224 2.878 3.852 2.553 7.012-.772 10.819-.032 4.24.828 7.609 4.399 12.83 3.126 4.136-1.005 9.005.757 13.505 1.528 14.021 2.404 27.904.679 41.827-1.044 8.538-1.052 17.257-.986 25.689-2.563 13.386-2.495 26.815-5.261 39.79-9.294 6.094-1.895 13.377-.269 18.384-5.717 1.542-1.68 5.813.981 5.945-3.768.021-.787 3.723-1.245 5.47-2.271 2.376-1.399 4.408-3.36 6.764-4.799 4.421-2.717 8.968-5.23 14.565-8.46l-1.677 10.723c-5.759 2.148-5.759 2.148-12.512 12.812l6.776 1.06c4.191-7.45 13.046-10.173 19.09-16.378.971 1.414 1.742 2.547 3.066 4.489-1.744 2.49-3.756 5.369-6.244 8.923 1.554.155 3.639 1.014 4.557.322 2.616-1.96 4.742-4.551 8.613-8.45.494 4.078.768 6.355 1.108 9.124 2.006 1.868 4.49 4.188 8.19 7.637-4.926 1.107-8.612 1.936-12.32 2.768.332 2.41.725 5.212 1.204 8.636-3.489 1.783-6.807 3.468-11.307 5.755 2.571 2.009 4.386 3.438 6.332 4.959-2.708 1.871-5.336 3.699-7.852 5.441-1.522-1.198-3.151-2.475-6.616-5.199.395 4.328.603 6.578.795 8.662l-4.644 2.21c-.012-.315-.078-1.599-.189-3.937-5.045 2.343-9.825 4.573-14.754 6.866.917 1.391 1.628 2.483 1.356 2.06-2.574 2.601-5.119 5.176-8.094 8.175l-3.907-4.43c-1.89 2.363-3.783 4.716-5.722 7.134l-7.453-1.167c-7.919 3.613-14.847 7.426-22.218 9.934-6.58 2.246-14.311-1.469-21.302 3.536-1.484-2.168-3.017-4.404-4.659-6.807l-8.321-.707c3.577 2.408 5.268 3.541 7.522 5.053-9.531 2.996-17.888 10.914-28.272 2.954a4070.24 4070.24 0 0 1-5.5 4.007c-.796-.921-1.604-1.853-2.991-3.461-5.983 3.027-12.174 2.885-17.694-2.846l-8.172 5.226c-2.312-1.137-4.609-2.271-7.451-3.665-.693.266-2.379 1.553-3.715 1.261-1.48-.318-2.471-2.548-3.989-3.114-2.109-.797-4.513-.824-6.788-1.18-1.825-.285-3.788-.243-5.427-.951-1.521-.654-2.699-2.112-4.694-3.768-8.766 7.319-14.033-4.594-24.631-3.115 4.4-4.486 6.721-6.849 9.036-9.208-2.102-2.675-7.999-.461-13.727 5.327-.086-1.646-.157-2.93-.244-4.504-3.623-4.741-7.89.151-12.037-.189a7704.832 7704.832 0 0 1-4.917-6.345c-1.083.688-2.16 1.372-3.62 2.304-.186-1.606-.33-2.881-.578-5.066-8.61-4.042-17.884-8.326-26.914-13.061-4.44-2.337-5.423-5.14-6.06-8.12-3.758-.66-8.265-.081-10.41-2.054-11.901-10.959-23.19-22.577-34.786-33.874-1.813-1.767-4.198-2.93-6.203-4.522-2.388-1.899-4.653-3.957-7.26-6.198-.478.957-1.193 2.37-2.394 4.759-6.837-1.911-14.801-.211-20.974-6.166-3.23 1.086-6.483 2.179-9.995 3.364-7.167-6.923-19.073-1.361-26.163-8.117-3.189.394-6.116.757-9.332 1.158-.402-2.281-.7-3.955-1.015-5.744-5.656 2.21-9.994.079-15.245-2.622-4.957-2.542-11.013-2.92-14.504-8.204-.733.455-1.467.906-2.991 1.853-.794-.797-1.755-1.779-3.297-3.339-1.36.423-2.985.934-4.352 1.361-5.748-2.377-11.74-4.413-17.317-7.262-11.396-5.818-24.3-8.597-34.166-17.661-3.323-3.051-8.208-4.544-12.55-6.322-25.472-10.433-46.173-27.723-66.392-45.763-11.433-10.209-21.509-21.539-29.944-34.364-2.754-4.188-5.4-8.894-9.277-11.78-4.226-3.146-4.165-8.157-7.491-11.67-8.996-9.51-13.193-22.122-19.468-33.367-6.098-10.928-10.934-22.635-15.486-34.323-4.799-12.338-10.144-24.797-12.4-37.702-2.13-12.166-6.692-24.056-5.99-36.734.088-1.542-2.024-3.269-1.825-4.737C3.275-64.14.105-72.157.397-80.345c.217-5.948 1.722-11.847 2.808-18.787 2.402-1.498 5.44-3.39 9.139-5.701 4.003 1.879 8.648 4.058 12.88 6.05.12 1.862.206 3.143.298 4.523l5.373.84c2.023 3.675 4.425 6.89 5.6 10.498 1.167 3.601 2.002 7.747 1.428 11.41-2.104 13.403 3.835 25.447 6.125 38.034 1.664 9.147 4.629 18.117 6.395 27.361.947 4.974 3.81 9.606 5.984 14.316 4.909 10.62 8.651 21.74 14.297 32.053 3.118 5.694 4.915 12.15 8.3 17.65 7.358 11.936 14.874 23.842 23.192 35.124 17.531 23.79 40.388 41.972 64.532 58.522 5.221 3.579 11.647 5.493 17.66 7.82 8.026 3.109 14.401 9.384 22.89 11.569 12.265 3.161 22.9 10.795 35.678 12.774 4.631.719 8.966 3.236 13.507 4.732 4.541 1.5 9.795.079 13.738 4.7 1.34 1.58 5.946.792 8.98.435 8.771-1.026 14.881.12 22.637 4.794 1.56-.747 3.12-1.493 5.323-2.551 1.138 1.261 2.339 2.477 3.399 3.808.846 1.061 1.52 2.26 1.99 2.965 2.639-2.066 5.115-4.005 8.447-6.626-1.587-5.314-3.752-11.747-5.395-18.303-1.655-6.61-2.465-13.436-4.256-20.005-1.679-6.161-2.863-12.214-2.95-20.801.291.405-1.065-1.466-2.688-3.686.799-5.106 1.871-10.508 2.416-15.957.39-3.861 2.804-7.74-.54-11.79-.994-1.198-.385-4.988.836-6.518 5.512-6.904 4.304-15.42 6.308-23.13 1.779-6.843 3.888-13.588 11.196-17.69.477-5.866 2.033-11.639 5.92-16.786 2.532-3.352 3.04-8.755 6.098-11.07 3.961-2.998 3.314-7.294 5.376-10.33 4.365-6.431 6.771-15.266 17.476-15.885a3145.59 3145.59 0 0 0-3.176-5.888l9.035-4.572c.85-1.464 2.961-5.107 6.24-10.764 5.586-4.82 12.202-12.964 20.745-17.193 8.405-4.157 14.539-10.8 22.299-15.27 8.245-4.746 17.143-8.35 25.744-12.45Z" clip-rule="evenodd" opacity=".2"/>
</svg>
