<svg width="1322" height="574" viewBox="0 0 1322 574" fill="none" xmlns="http://www.w3.org/2000/svg">
<path fill-rule="evenodd" clip-rule="evenodd" d="M1180.26 9.36867C1131.99 13.2419 1086.39 19.4799 1055.78 28.9123C972.396 54.6069 943.695 115.659 915.023 176.647C912.145 182.771 909.266 188.894 906.332 194.981C890.298 228.25 872.591 260.418 844.029 285.017C815.411 309.665 776.072 326.572 717.021 329.713C658.514 332.825 617.264 343.493 586.025 358.791C554.806 374.08 533.461 394.056 514.83 415.995C506.419 425.9 498.546 436.237 490.555 446.73C463.198 482.65 434.456 520.39 378.013 548.798C319.492 578.251 244.389 578.429 174.541 566.865C104.639 555.293 39.6627 531.904 1.149 513.855C0.153756 513.388 -0.27721 512.199 0.186404 511.197C0.650019 510.196 1.83265 509.763 2.82789 510.229C41.0579 528.146 105.687 551.413 175.186 562.919C244.739 574.433 318.832 574.111 376.234 545.22C431.781 517.263 459.841 480.436 487.12 444.635C495.187 434.047 503.186 423.549 511.807 413.397C530.664 391.191 552.424 370.798 584.285 355.195C616.127 339.601 657.931 328.851 716.811 325.719C775.148 322.616 813.604 305.956 841.443 281.979C869.338 257.954 886.751 226.441 902.755 193.236C905.681 187.165 908.558 181.038 911.445 174.893C940.053 113.98 969.48 51.3221 1054.61 25.0877C1085.66 15.5201 1131.63 9.25812 1179.94 5.38133C1228.29 1.50131 1279.14 0 1320.01 0C1321.11 0 1322 0.89543 1322 2C1322 3.10457 1321.11 4 1320.01 4C1279.22 4 1228.48 5.49869 1180.26 9.36867Z" fill="#53AFEE"/>
</svg>
