<svg xmlns="http://www.w3.org/2000/svg" width="53" height="105" fill="none" viewBox="0 0 53 105">
  <path fill="#676E89" d="M0 105a53.394 53.394 0 0 0 20.28-3.989 53.011 53.011 0 0 0 17.195-11.379 52.472 52.472 0 0 0 11.49-17.035A52.092 52.092 0 0 0 53 52.5c-14.05 0-27.525 5.531-37.46 15.376C5.602 77.722.02 91.076.02 105H0Z"/>
  <path fill="#53AFEE" d="M53 52.5a52.09 52.09 0 0 0-4.033-20.092 52.47 52.47 0 0 0-11.485-17.033 53.01 53.01 0 0 0-17.188-11.38A53.39 53.39 0 0 0 .019 0c0 6.895 1.37 13.722 4.033 20.092a52.471 52.471 0 0 0 11.485 17.033 53.009 53.009 0 0 0 17.189 11.38A53.39 53.39 0 0 0 53 52.5Z"/>
</svg>
